<?xml version="1.0" encoding="iso-8859-1"?>
<!-- Generator: Adobe Illustrator 17.1.0, SVG Export Plug-In . SVG Version: 6.00 Build 0)  -->
<!DOCTYPE svg PUBLIC "-//W3C//DTD SVG 1.1//EN" "http://www.w3.org/Graphics/SVG/1.1/DTD/svg11.dtd">
<svg version="1.1" id="Capa_1" xmlns="http://www.w3.org/2000/svg" xmlns:xlink="http://www.w3.org/1999/xlink" x="0px" y="0px"
	 viewBox="0 0 218.189 218.189" style="enable-background:new 0 0 218.189 218.189;" xml:space="preserve">
<path d="M73.836,176.151H42.195c-2.275,0-4.365-1.042-5.734-2.859s-1.793-4.114-1.165-6.301l15.338-53.364
	c-2.958-0.744-5.388-2.831-6.602-5.572H19.955C8.952,108.054,0,99.102,0,88.099s8.952-19.955,19.955-19.955h0.764
	c0.943-14.554,13.083-26.105,27.871-26.105h125.203c15.4,0,27.93,12.529,27.93,27.93v1.353c0,9.484-4.751,17.879-11.999,22.93
	h25.966c1.381,0,2.5,1.119,2.5,2.5v20.032c0,11.534-9.384,20.918-20.918,20.918h-41.825c-11.535,0-20.918-9.384-20.918-20.918v-2.86
	h-29.696c-3.636,0-6.877,2.44-7.881,5.935l-1.919,6.678h11.712v-4.785c0-1.381,1.119-2.5,2.5-2.5s2.5,1.119,2.5,2.5v14.57
	c0,1.381-1.119,2.5-2.5,2.5s-2.5-1.119-2.5-2.5v-4.785H93.593l-10.909,37.953C81.556,173.41,77.918,176.151,73.836,176.151z
	 M53.033,99.25c-2.667,0-4.836,2.169-4.836,4.836s2.169,4.836,4.836,4.836h0.836c0.785,0,1.525,0.369,1.997,0.996
	s0.623,1.439,0.406,2.194l-16.17,56.259c-0.191,0.664-0.062,1.36,0.353,1.912c0.416,0.551,1.049,0.867,1.74,0.867h31.641
	c1.865,0,3.527-1.252,4.042-3.044L89.292,128.4c0.01-0.038,0.021-0.076,0.033-0.114l2.819-9.81
	c1.617-5.625,6.834-9.554,12.687-9.554h108.358V99.25H53.033z M139.527,113.922v2.86c0,8.777,7.141,15.918,15.918,15.918h41.825
	c8.777,0,15.918-7.141,15.918-15.918v-2.86H139.527z M19.955,73.144C11.708,73.144,5,79.853,5,88.099s6.708,14.955,14.955,14.955
	h23.296c0.155-1.483,0.642-2.869,1.384-4.083C31.69,97.128,21.576,86.376,20.719,73.144H19.955z M154.754,94.25h19.038
	c12.644,0,22.93-10.286,22.93-22.93v-1.353c0-12.644-10.286-22.93-22.93-22.93h-19.038V94.25z M139.527,94.25h10.228V47.038h-10.228
	V94.25z M87.855,94.25h46.672V47.038H87.855V94.25z M72.627,94.25h10.228V47.038H72.627V94.25z M53.033,94.25h14.594V47.038H48.589
	c-12.644,0-22.93,10.286-22.93,22.93v1.353c0,12.644,10.286,22.93,22.93,22.93H53.033z"/>
<g>
</g>
<g>
</g>
<g>
</g>
<g>
</g>
<g>
</g>
<g>
</g>
<g>
</g>
<g>
</g>
<g>
</g>
<g>
</g>
<g>
</g>
<g>
</g>
<g>
</g>
<g>
</g>
<g>
</g>
</svg>
